<svg width="5" height="7" viewBox="0 0 5 7" fill="none" xmlns="http://www.w3.org/2000/svg">
<path d="M4.14647 4.1465L3 5.29297V0.500015C3 0.22364 2.77636 0 2.49999 0C2.22361 0 1.99997 0.22364 1.99997 0.500015V5.29297L0.853509 4.1465C0.658181 3.95117 0.341776 3.95117 0.146496 4.1465C-0.0488319 4.34183 -0.0488319 4.65823 0.146496 4.85352L2.1459 6.85292C2.19216 6.89933 2.24757 6.93612 2.30911 6.96158C2.37019 6.98684 2.43497 7.00002 2.50004 7.00002C2.5651 7.00002 2.62988 6.98684 2.69096 6.96158C2.7525 6.93612 2.80791 6.89933 2.85417 6.85292L4.85357 4.85352C5.0489 4.65819 5.0489 4.34178 4.85357 4.1465C4.6582 3.95117 4.3418 3.95117 4.14647 4.1465Z" fill="#999999"/>
</svg>
